<?xml version="1.0" standalone="no"?><!DOCTYPE svg PUBLIC "-//W3C//DTD SVG 1.1//EN" "http://www.w3.org/Graphics/SVG/1.1/DTD/svg11.dtd"><svg t="1720165717107" class="icon" viewBox="0 0 1024 1024" version="1.1" xmlns="http://www.w3.org/2000/svg" p-id="878" width="32" height="32" xmlns:xlink="http://www.w3.org/1999/xlink"><path d="M420.067556 50.232889l15.872 31.061333a85.333333 85.333333 0 0 0 152.120888 0l15.872-31.061333 33.564445 9.329778a468.650667 468.650667 0 0 1 193.991111 108.544l23.324444 21.617777-14.108444 28.501334a85.333333 85.333333 0 0 0 76.629333 122.993778h1.137778l31.857778-0.455112 9.500444 30.321778a471.153778 471.153778 0 0 1 11.946667 235.292445l-7.68 37.717333-38.286222-3.754667a85.333333 85.333333 0 0 0-73.784889 139.946667l24.860444 29.297778-26.737777 27.704889a469.219556 469.219556 0 0 1-204.003556 124.472889l-40.106667 11.946666-12.743111-39.822222a85.390222 85.390222 0 0 0-162.588444 0l-12.743111 39.822222-40.106667-11.946666a469.219556 469.219556 0 0 1-204.060444-124.472889l-26.680889-27.704889 24.803555-29.354667a85.333333 85.333333 0 0 0-73.784889-139.946667l-38.229333 3.811556-7.736889-37.660444a471.267556 471.267556 0 0 1 11.946667-235.349334l9.557333-30.321778 31.857778 0.455112h1.137778a85.333333 85.333333 0 0 0 76.629333-122.993778l-14.051556-28.444445 23.267556-21.617777a468.650667 468.650667 0 0 1 193.991111-108.657778l33.564445-9.272889z m-148.366223 162.133333A170.837333 170.837333 0 0 1 138.24 423.651556a385.251556 385.251556 0 0 0-7.68 132.551111 170.666667 170.666667 0 0 1 129.024 245.020444 384 384 0 0 0 108.657778 66.844445A170.496 170.496 0 0 1 512 789.219556c60.472889 0 113.550222 31.459556 143.872 78.848a384.113778 384.113778 0 0 0 108.657778-66.844445 170.666667 170.666667 0 0 1 128.967111-245.020444 388.778667 388.778667 0 0 0-7.68-132.551111 170.723556 170.723556 0 0 1-133.518222-211.285334 383.374222 383.374222 0 0 0-108.600889-61.269333A170.325333 170.325333 0 0 1 512 213.219556a170.325333 170.325333 0 0 1-131.754667-62.122667c-39.594667 14.449778-76.231111 35.271111-108.544 61.269333z" p-id="879" fill="#8a8a8a"></path><path d="M320 512a192 192 0 1 1 384 0 192 192 0 0 1-384 0zM512 405.333333a106.666667 106.666667 0 1 0 0 213.333334 106.666667 106.666667 0 0 0 0-213.333334z" p-id="880" fill="#8a8a8a"></path></svg>